<?xml version="1.0" standalone="no"?>
<!DOCTYPE svg PUBLIC "-//W3C//DTD SVG 20010904//EN"
 "http://www.w3.org/TR/2001/REC-SVG-20010904/DTD/svg10.dtd">
<svg version="1.0" xmlns="http://www.w3.org/2000/svg"
 width="16.000000pt" height="16.000000pt" viewBox="0 0 16.000000 16.000000"
 preserveAspectRatio="xMidYMid meet">
<metadata>
Created by potrace 1.11, written by Peter Selinger 2001-2013
</metadata>
<g transform="translate(0.000000,16.000000) scale(0.003206,-0.003206)"
fill="#000000" stroke="none">
<path d="M2425 4964 c-55 -30 -907 -504 -970 -540 -22 -13 -51 -29 -65 -37
-230 -125 -253 -140 -234 -154 10 -7 23 -13 30 -13 7 0 41 -13 77 -29 l65 -29
7 -64 c8 -77 2 -114 -23 -142 -30 -32 -50 -78 -47 -107 2 -14 15 -43 30 -65
25 -37 27 -44 21 -119 -3 -44 -8 -93 -11 -109 -11 -55 -35 -221 -35 -238 0
-16 13 -18 126 -18 l126 0 -6 55 c-3 30 -15 114 -26 186 -26 173 -26 196 6
243 39 57 37 104 -6 158 -28 35 -35 52 -36 93 -3 89 -6 88 149 31 84 -31 143
-58 149 -69 5 -10 9 -78 9 -151 l0 -134 82 20 c121 28 271 31 360 6 93 -25
177 -71 241 -129 l51 -46 61 56 c137 126 217 141 629 118 l40 -2 1 127 c1 133
7 151 47 164 20 6 485 178 551 203 l28 11 -25 20 c-14 11 -27 20 -30 20 -2 0
-49 25 -103 56 -55 31 -124 70 -154 86 -30 17 -190 106 -355 198 -165 92 -379
211 -475 265 -96 53 -188 99 -205 102 -20 3 -46 -5 -80 -23z m230 -649 c22 -4
54 -9 70 -12 137 -21 486 -109 496 -124 9 -15 13 -99 4 -99 -3 0 -46 13 -97
30 -104 33 -240 66 -308 75 -25 3 -56 8 -70 10 -126 22 -410 21 -530 -1 -14
-2 -41 -7 -60 -10 -74 -11 -217 -48 -299 -75 -65 -22 -87 -26 -93 -17 -21 33
1 94 39 109 103 39 412 105 543 116 41 3 76 6 78 8 5 4 187 -4 227 -10z"/>
<path d="M1645 3695 c-5 -2 -31 -6 -57 -10 -44 -6 -46 -8 -42 -32 10 -52 34
-218 34 -231 0 -10 11 -12 41 -8 40 6 498 82 549 92 14 2 72 11 130 20 58 9
107 17 108 19 6 5 -78 64 -122 87 -138 71 -308 69 -548 -6 l-48 -15 0 44 c0
45 -9 52 -45 40z"/>
<path d="M3300 3679 c0 -22 0 -22 -132 -13 -73 4 -189 8 -258 8 -120 0 -128
-1 -190 -31 -66 -31 -140 -86 -129 -97 3 -3 21 -8 40 -10 49 -7 110 -16 139
-21 14 -3 41 -7 60 -10 19 -3 62 -9 95 -15 47 -8 393 -62 610 -96 17 -2 41 -6
55 -9 14 -3 48 -7 75 -11 28 -3 52 -8 55 -9 3 -2 33 -7 65 -10 33 -4 65 -11
70 -16 11 -11 16 -591 5 -608 -4 -7 -29 -8 -70 -3 -172 20 -383 -8 -554 -72
-38 -14 -69 -26 -70 -26 -1 0 -3 16 -4 36 -4 49 -34 105 -71 129 -17 11 -36
33 -42 48 -12 28 -54 57 -83 57 -8 0 -26 -13 -39 -30 -14 -16 -30 -30 -36 -30
-28 0 -63 -28 -81 -65 -16 -33 -20 -62 -20 -143 l0 -102 -27 6 c-67 14 -63 8
-64 107 -1 150 -16 194 -77 232 -17 11 -35 30 -38 42 -7 27 -42 59 -73 66 -19
5 -31 -2 -56 -29 -17 -18 -39 -34 -47 -34 -28 0 -77 -50 -88 -88 -5 -20 -10
-78 -10 -128 0 -50 -2 -93 -5 -96 -10 -9 -126 17 -135 31 -4 8 -8 86 -8 173 0
145 2 160 21 185 28 36 28 107 -1 135 -11 12 -51 31 -88 44 -177 59 -347 -40
-265 -155 13 -17 17 -32 11 -41 -7 -12 -22 -11 -92 4 -169 37 -205 39 -256 16
-50 -22 -82 -84 -82 -157 0 -59 22 -93 78 -122 l36 -18 -60 -18 c-115 -33
-205 -107 -264 -216 -57 -108 -74 -177 -74 -299 1 -152 37 -257 128 -374 25
-33 46 -64 46 -69 0 -4 -24 -60 -54 -122 -48 -101 -58 -116 -94 -134 l-40 -20
-71 -216 c-64 -193 -88 -296 -62 -269 5 5 37 92 71 194 34 102 65 189 70 193
4 5 10 -1 13 -12 3 -12 -23 -103 -60 -214 -72 -212 -75 -226 -58 -277 12 -34
12 -35 19 -10 4 14 37 115 73 225 61 187 81 237 84 207 1 -7 2 -18 3 -24 1 -7
-31 -112 -72 -233 -59 -176 -72 -229 -69 -263 5 -43 12 -60 22 -50 4 4 148
412 162 461 3 11 12 16 20 13 8 -3 17 -6 19 -6 11 0 -3 -45 -86 -283 -50 -142
-90 -262 -90 -267 0 -13 62 -42 71 -33 4 5 48 125 99 267 50 143 96 266 102
273 6 7 19 13 30 13 15 0 18 -4 13 -17 -3 -10 -42 -124 -85 -253 -43 -129 -82
-243 -86 -253 -6 -15 -2 -17 27 -12 61 11 57 3 165 314 86 246 88 251 114 251
16 0 9 -30 -70 -265 -49 -146 -84 -265 -78 -265 6 0 29 5 51 12 46 14 53 27
99 183 16 55 39 129 50 165 10 36 20 70 22 75 29 109 38 125 67 125 22 0 23
-6 10 -46 -49 -148 -142 -467 -138 -470 6 -6 76 12 94 24 9 6 62 175 78 252
10 50 65 252 70 260 3 6 15 10 26 10 22 0 22 0 -11 -126 -11 -39 -21 -81 -24
-95 -8 -40 -13 -60 -40 -166 -14 -56 -26 -104 -26 -107 0 -13 61 -1 74 14 12
13 27 65 40 140 3 14 10 50 15 80 53 272 53 271 75 280 12 4 22 7 24 5 5 -4
-77 -468 -90 -509 -14 -44 -12 -43 -193 -90 -55 -14 -188 -49 -295 -78 -107
-28 -208 -50 -224 -49 -41 2 -91 36 -105 69 -6 15 -33 90 -60 167 -47 134 -68
166 -65 99 2 -34 91 -340 107 -365 15 -25 64 -50 95 -51 15 0 101 20 192 45
581 157 631 169 644 149 3 -5 -118 -43 -267 -86 -298 -86 -338 -98 -333 -103
3 -3 54 4 171 23 76 12 667 162 1000 254 204 56 417 114 475 130 58 15 172 47
254 69 82 23 151 40 153 37 11 -10 -219 -228 -316 -300 -129 -95 -559 -353
-598 -359 -32 -5 -195 75 -369 181 l-100 61 -46 -14 c-25 -7 -61 -16 -80 -19
-18 -4 -75 -17 -126 -29 l-92 -23 97 -70 c115 -82 194 -133 316 -203 137 -79
366 -191 389 -191 33 0 503 267 689 391 494 330 795 820 884 1439 4 25 8 56
10 70 7 48 24 196 29 255 3 33 8 89 12 125 15 170 20 364 22 832 l2 507 -32 5
c-18 3 -107 8 -198 11 -91 3 -178 7 -195 9 -16 2 -61 7 -100 11 -82 8 -117 12
-165 20 -19 2 -57 8 -85 11 -27 3 -53 8 -57 11 -5 2 -8 -6 -8 -18z m-1340
-555 c0 -26 -27 -43 -95 -60 -27 -7 -28 -6 -21 22 9 39 41 64 82 64 30 0 34
-3 34 -26z m208 -57 c2 -21 -1 -37 -7 -37 -6 0 -12 6 -12 13 -1 6 -3 25 -5 40
-2 19 1 27 9 24 7 -2 13 -20 15 -40z m-180 -20 c9 -6 12 -56 12 -192 0 -177 1
-185 22 -205 12 -11 25 -20 30 -20 4 0 8 90 8 200 0 167 2 200 14 200 39 0 44
-24 45 -209 0 -98 3 -185 6 -192 14 -35 58 -51 188 -69 73 -11 149 -22 170
-25 58 -8 44 11 -25 34 -91 31 -104 42 -42 37 28 -2 55 -1 61 2 6 4 10 47 9
101 -1 103 12 145 46 154 33 9 75 -3 99 -29 20 -22 23 -35 24 -127 1 -56 0
-105 -2 -109 -2 -4 -22 0 -45 8 -66 23 -82 7 -23 -23 28 -14 63 -36 78 -49 32
-27 76 -40 162 -49 33 -3 84 -10 114 -16 66 -11 61 -11 61 1 0 5 -33 20 -72
32 l-73 23 55 5 55 5 3 105 c2 79 7 109 19 122 23 26 54 22 93 -11 34 -28 35
-31 39 -115 4 -105 0 -119 -31 -107 -13 4 -36 11 -51 15 -43 10 -26 -9 53 -59
67 -44 128 -61 295 -80 28 -3 61 -8 75 -10 14 -3 41 -7 60 -10 136 -22 221
-80 275 -190 37 -74 34 -209 -6 -270 l-20 -30 8 50 c10 69 7 173 -6 222 -11
40 -66 111 -77 100 -3 -3 4 -23 15 -45 25 -48 32 -84 21 -103 -10 -15 -61 -17
-210 -6 -52 4 -129 9 -170 12 -41 3 -96 7 -122 10 -26 2 -90 7 -142 11 l-94 6
-22 -72 c-12 -39 -20 -74 -17 -76 5 -5 73 -10 252 -19 326 -15 430 -24 458
-36 22 -9 -194 -7 -980 7 l-343 6 -37 -31 c-69 -57 -78 -66 -96 -101 -29 -55
-104 -194 -172 -320 -34 -63 -70 -130 -80 -149 l-17 -34 59 7 c32 3 69 8 83
10 14 3 51 7 84 11 32 4 69 9 82 11 13 2 24 0 24 -6 0 -5 -8 -10 -17 -11 -23
-1 -39 -4 -198 -34 -159 -30 -300 -55 -340 -62 -16 -3 -99 -18 -182 -33 -84
-16 -163 -27 -175 -25 -32 6 -78 26 -78 34 0 3 -31 42 -70 86 -38 43 -67 81
-65 84 5 4 118 -89 140 -114 6 -7 25 -20 44 -29 32 -17 77 -17 164 0 11 2 40
6 66 9 44 5 68 9 136 20 17 3 49 8 71 11 76 9 89 13 104 35 32 45 311 555 314
575 9 46 -15 59 -113 62 l-91 4 6 31 c18 98 21 138 18 211 -4 130 -36 225
-111 329 -27 38 -29 46 -13 37 40 -22 111 -104 140 -164 39 -79 58 -172 53
-261 -3 -38 -5 -83 -6 -100 -2 -28 1 -30 37 -33 28 -3 48 3 75 22 50 35 90 34
129 -4 21 -20 43 -30 64 -31 18 -1 60 -3 93 -5 96 -6 102 -2 115 63 19 88 15
175 -10 253 -12 38 -30 76 -40 85 -17 15 -121 35 -310 59 -40 5 -42 5 -25 -8
11 -7 36 -17 55 -22 19 -4 37 -8 40 -9 3 -1 41 -9 85 -19 44 -10 88 -25 97
-33 40 -36 66 -179 48 -266 -12 -62 -40 -82 -35 -26 3 34 -11 95 -24 103 -13
8 -60 14 -164 22 -123 8 -146 14 -166 43 l-15 24 59 -7 c167 -18 185 -19 185
-4 0 8 -15 31 -32 52 -27 30 -50 42 -123 65 -81 26 -93 33 -122 72 -18 24 -48
64 -66 90 -22 28 -55 56 -91 75 -31 16 -56 36 -57 44 -6 92 1 364 9 372 10 10
68 26 87 24 6 -1 16 -5 23 -9z m-399 -82 c45 -23 57 -70 16 -63 -39 8 -58 -13
-59 -63 -1 -40 2 -45 32 -60 l32 -17 -35 -16 c-33 -16 -37 -16 -66 1 -57 34
-75 107 -41 173 16 33 52 60 80 60 7 0 26 -7 41 -15z m105 -4 c59 -65 45 -193
-25 -235 -44 -26 -53 -10 -20 32 44 55 48 99 18 166 -24 51 -24 56 -8 56 10 0
26 -9 35 -19z m764 -70 c10 -6 5 -11 -17 -20 -38 -17 -44 -30 -47 -126 -2 -61
-7 -83 -20 -92 -28 -20 -34 -6 -33 80 2 92 16 129 57 151 31 18 42 19 60 7z
m456 -93 c-33 -15 -47 -56 -45 -129 2 -50 -2 -71 -14 -83 -9 -9 -21 -16 -26
-16 -5 0 -9 40 -9 89 0 82 2 92 26 120 19 23 34 31 57 30 29 0 30 -1 11 -11z
m934 -111 c6 0 12 -13 12 -29 0 -29 -9 -35 -27 -17 -5 5 -37 21 -69 35 l-59
25 65 -6 c36 -4 71 -7 78 -8z m-2181 -69 c42 -15 75 -38 119 -82 101 -102 146
-226 140 -386 -18 -412 -422 -598 -651 -300 -73 94 -107 201 -106 330 1 166
71 312 196 405 75 57 202 71 302 33z m1793 -99 l0 -46 -108 0 -108 1 2 40 c1
23 2 44 3 47 1 4 48 6 106 6 l105 -1 0 -47z m280 3 l0 -47 -117 0 c-116 0
-118 0 -121 24 -2 12 -1 34 2 47 6 24 8 24 121 24 l115 0 0 -48z m-84 -734 c4
-5 -4 -9 -17 -9 -13 -1 -51 -3 -84 -4 -33 -2 -294 -6 -580 -10 -286 -4 -537
-8 -558 -9 -45 -2 -44 15 2 30 37 12 1225 14 1237 2z m-600 -110 c4 -5 -8 -8
-27 -9 -19 0 -61 -2 -94 -4 -73 -4 -327 -15 -450 -20 -84 -3 -188 14 -207 33
-4 4 168 7 381 7 214 0 393 -3 397 -7z m694 -28 c-5 -22 -8 -27 -9 -13 -1 21
9 56 14 51 2 -2 0 -19 -5 -38z m-565 -73 l44 -50 73 7 c40 4 89 8 109 10 20 2
55 -3 79 -11 23 -8 59 -12 79 -10 165 22 154 22 146 -4 -25 -83 -31 -89 -82
-89 -55 -1 -115 -20 -143 -45 -20 -18 -61 -21 -116 -10 -26 6 -60 -8 -220 -90
-191 -98 -235 -125 -201 -125 9 0 37 10 62 22 52 25 63 19 67 -37 6 -107 -28
-199 -88 -236 -62 -38 -156 -10 -194 57 -8 14 -19 20 -31 17 -26 -7 -25 -11
23 -60 31 -31 37 -43 25 -43 -10 0 -37 20 -60 45 l-43 44 -83 -29 c-108 -39
-178 -47 -217 -27 -66 35 -104 104 -104 191 0 62 -6 66 -64 53 -117 -27 -124
-41 -86 -159 16 -51 24 -92 19 -99 -10 -18 -11 -17 -43 74 -20 54 -39 88 -63
111 -26 24 -34 38 -29 53 8 24 47 44 96 49 19 2 51 6 70 10 19 3 46 8 59 10
44 9 89 32 100 52 6 12 13 63 15 114 6 160 31 183 196 180 87 -1 123 -7 213
-34 60 -18 109 -38 110 -43 1 -6 -35 -11 -87 -12 -49 -1 -94 -7 -99 -12 -13
-13 -17 -243 -5 -252 10 -6 149 14 166 25 8 5 12 36 12 87 0 43 4 79 9 79 11
0 33 -62 31 -87 -1 -10 -2 -33 -1 -51 l1 -33 43 24 c23 14 58 30 78 36 40 13
83 53 97 91 20 52 -3 215 -34 241 -20 17 -17 28 6 22 11 -3 40 -28 65 -56z
m445 -272 c0 -8 -9 -15 -19 -15 -20 0 -37 -32 -27 -49 8 -12 -11 -61 -23 -61
-8 0 -31 74 -31 103 0 17 36 35 73 36 18 1 27 -4 27 -14z m-352 -13 c9 -7 10
-16 1 -40 -13 -37 5 -76 40 -85 33 -8 46 18 18 36 -28 18 -41 53 -24 64 7 5
42 13 79 19 l67 10 7 -40 c20 -117 -21 -226 -99 -265 -86 -43 -199 38 -221
159 -3 19 -8 45 -10 57 -5 24 12 42 69 71 45 23 54 25 73 14z m262 -148 c0
-23 -18 -24 -24 -1 -11 41 -7 54 9 33 8 -11 15 -25 15 -32z m-321 -168 c-11
-10 -51 17 -69 46 -33 54 -23 56 26 5 26 -26 45 -49 43 -51z m-985 4 c67 -59
73 -161 13 -227 -85 -92 -216 -26 -213 107 1 47 39 124 59 117 5 -1 22 -34 36
-73 21 -53 32 -70 49 -72 26 -4 28 6 5 23 -15 11 -15 13 5 19 26 9 27 24 7 89
-8 26 -10 47 -5 47 5 0 25 -14 44 -30z m-228 -102 c-4 -58 12 -109 46 -145 23
-24 18 -29 -12 -13 -47 25 -80 134 -57 188 17 37 26 25 23 -30z"/>
<path d="M2620 2400 c0 -5 10 -12 23 -15 12 -2 65 -15 117 -27 l95 -23 23 -47
c13 -25 24 -66 24 -90 2 -59 -19 -142 -40 -154 -15 -10 -17 -5 -17 49 l0 61
-35 7 c-19 4 -63 9 -97 12 l-61 5 -12 -62 c-6 -33 -13 -73 -16 -87 l-6 -26
137 1 c152 2 146 -1 170 81 28 97 24 164 -17 243 -24 47 -19 45 -163 62 -55 6
-106 13 -112 15 -7 3 -13 0 -13 -5z"/>
<path d="M2960 2354 c0 -24 25 -94 33 -94 6 0 21 10 34 22 26 25 36 25 264 13
105 -5 148 -4 153 4 5 7 -4 11 -26 12 -43 2 -79 5 -153 14 -73 9 -88 11 -190
20 -44 4 -88 9 -97 11 -10 1 -18 1 -18 -2z"/>
<path d="M1475 2581 c-120 -29 -235 -168 -262 -317 -39 -213 69 -429 246 -491
19 -6 62 -10 97 -9 95 5 173 55 237 153 38 60 34 63 -10 6 -45 -59 -55 -68
-118 -98 -195 -95 -400 110 -380 380 6 82 10 96 41 165 31 71 111 150 167 167
47 14 139 8 178 -13 50 -25 114 -90 134 -134 10 -22 20 -38 22 -36 2 2 -7 26
-20 53 -33 62 -94 125 -149 152 -48 23 -135 33 -183 22z"/>
<path d="M1415 2313 c-74 -18 -109 -134 -62 -204 31 -46 65 -62 106 -48 36 13
38 20 12 36 -51 32 -29 123 29 123 34 0 38 14 14 48 -13 19 -66 55 -76 51 -2
-1 -12 -4 -23 -6z"/>
<path d="M1574 2217 c5 -70 -14 -121 -60 -168 l-37 -38 39 10 c68 19 113 75
115 146 4 95 1 103 -30 103 -30 0 -30 0 -27 -53z"/>
<path d="M2478 1502 c-25 -3 -58 -34 -58 -54 0 -4 18 1 39 13 36 18 42 19 75
5 34 -14 40 -25 48 -81 3 -18 -3 -20 -55 -21 -35 0 -63 -6 -72 -15 -12 -12 -9
-14 25 -16 61 -2 109 -22 150 -63 l38 -38 0 91 c0 95 -3 108 -30 146 -12 18
-30 24 -75 29 -32 4 -70 6 -85 4z"/>
<path d="M3562 1492 c-49 -5 -34 -27 18 -27 27 0 52 7 64 17 21 18 20 18 -14
15 -19 -1 -50 -3 -68 -5z"/>
<path d="M3404 1479 c-17 -20 0 -59 26 -59 23 0 27 15 6 23 -8 3 -16 16 -18
28 -2 18 -5 20 -14 8z"/>
<path d="M2850 1012 c0 -18 48 -52 73 -52 39 0 33 15 -16 39 -47 23 -57 25
-57 13z"/>
<path d="M3218 1212 c-22 -4 -23 -30 -2 -80 19 -49 68 -77 109 -62 18 6 17 8
-10 21 -27 13 -46 41 -72 105 -5 12 -15 19 -25 16z"/>
<path d="M2084 892 c-5 -4 -10 -26 -11 -49 0 -36 3 -43 18 -43 13 0 19 -7 19
-24 0 -34 11 -38 44 -16 l29 18 -30 16 c-33 16 -43 34 -43 71 0 26 -11 37 -26
27z"/>
<path d="M1097 3634 c-1 -1 -58 -4 -127 -7 -69 -4 -127 -7 -129 -7 -5 0 7
-1099 13 -1185 13 -175 25 -320 31 -365 2 -19 7 -56 10 -82 6 -55 14 -113 20
-148 3 -14 7 -43 11 -65 11 -84 76 -338 106 -415 9 -23 11 -20 34 44 24 68 39
88 81 106 13 5 36 36 53 70 l31 61 -16 82 c-9 45 -28 104 -42 132 -76 147 -97
315 -59 477 12 51 14 97 9 200 -4 73 -7 288 -7 478 l-1 345 35 3 c49 5 57 15
65 85 4 34 9 71 11 82 2 11 6 42 9 68 l7 48 -72 -3 c-39 -2 -72 -4 -73 -4z"/>
</g>
</svg>
